<svg xmlns="http://www.w3.org/2000/svg" width="1440" height="400" viewBox="0 0 1440 400">
    <g fill="none" fill-rule="evenodd">
        <path fill="#3F4CEC" d="M0 0h1440v400H0z"/>
        <g transform="rotate(180 720.117 200)">
            <path fill="#2CD5C6" d="M0 162.238h84.848V400H0z"/>
            <path fill="#2A36C7" d="M169.697 400H0v-.257c0-46.719 37.988-84.591 84.848-84.591 46.861 0 84.849 37.872 84.849 84.59V400z"/>
            <path stroke="#0B1265" stroke-dasharray="3" d="M289.977 305.828h-60.48v73.66H62.472"/>
            <path fill="#2A36C7" d="M291.375 296.503l8.425 6.121-3.218 9.903h-10.413l-3.218-9.903z"/>
            <path fill="#EFCC49" d="M84.848 162.238c-37.076 0-67.132 30.056-67.132 67.133 0 37.076 30.056 67.132 67.132 67.132V162.238z"/>
            <path fill="#2A36C7" d="M0 0h14.918a3.73 3.73 0 1 1 0 7.46H0V0zM0 16.783h62.47a3.73 3.73 0 1 1 0 7.46H0v-7.46z"/>
            <path fill="#E6E7F2" d="M0 35.431h34.499a3.73 3.73 0 1 1 0 7.46H0v-7.46z"/>
            <rect width="44.755" height="7.459" x="45.688" y="35.431" fill="#2A36C7" rx="3.73"/>
            <path fill="#1EE87F" d="M0 54.08h14.918a3.73 3.73 0 1 1 0 7.46L0 61.536V54.08z"/>
            <path fill="#4755D7" d="M0 162.238V83.916l84.848 78.322H0z"/>
            <g fill="#FFF" transform="translate(50.35 193.007)">
                <ellipse cx="3.622" cy="3.585" rx="3.622" ry="3.585"/>
                <ellipse cx="19.143" cy="3.585" rx="3.622" ry="3.585"/>
                <ellipse cx="34.664" cy="3.585" rx="3.622" ry="3.585"/>
                <ellipse cx="50.185" cy="3.585" rx="3.622" ry="3.585"/>
                <ellipse cx="65.706" cy="3.585" rx="3.622" ry="3.585"/>
                <ellipse cx="3.622" cy="19.974" rx="3.622" ry="3.585"/>
                <ellipse cx="19.143" cy="19.974" rx="3.622" ry="3.585"/>
                <ellipse cx="34.664" cy="19.974" rx="3.622" ry="3.585"/>
                <ellipse cx="50.185" cy="19.974" rx="3.622" ry="3.585"/>
                <ellipse cx="65.706" cy="19.974" rx="3.622" ry="3.585"/>
                <ellipse cx="3.622" cy="36.364" rx="3.622" ry="3.585"/>
                <ellipse cx="19.143" cy="36.364" rx="3.622" ry="3.585"/>
                <ellipse cx="34.664" cy="36.364" rx="3.622" ry="3.585"/>
                <ellipse cx="50.185" cy="36.364" rx="3.622" ry="3.585"/>
                <ellipse cx="65.706" cy="36.364" rx="3.622" ry="3.585"/>
                <ellipse cx="3.622" cy="52.753" rx="3.622" ry="3.585"/>
                <ellipse cx="19.143" cy="52.753" rx="3.622" ry="3.585"/>
                <ellipse cx="34.664" cy="52.753" rx="3.622" ry="3.585"/>
                <ellipse cx="50.185" cy="52.753" rx="3.622" ry="3.585"/>
                <ellipse cx="65.706" cy="52.753" rx="3.622" ry="3.585"/>
                <ellipse cx="3.622" cy="69.142" rx="3.622" ry="3.585"/>
                <ellipse cx="19.143" cy="69.142" rx="3.622" ry="3.585"/>
                <ellipse cx="34.664" cy="69.142" rx="3.622" ry="3.585"/>
                <ellipse cx="50.185" cy="69.142" rx="3.622" ry="3.585"/>
                <ellipse cx="65.706" cy="69.142" rx="3.622" ry="3.585"/>
            </g>
            <circle cx="61.538" cy="379.487" r="9.324" fill="#FFF" fill-opacity=".4"/>
            <g stroke="#FFF" stroke-width="3" transform="translate(124.01 295.571)">
                <circle cx="27.972" cy="27.972" r="10.932"/>
                <circle cx="27.972" cy="27.972" r="18.702" opacity=".4"/>
                <circle cx="27.972" cy="27.972" r="26.472" opacity=".202"/>
            </g>
        </g>
        <g transform="rotate(180 144.651 200)">
            <path fill="#2A36C7" d="M289.302 400H276.28a3.72 3.72 0 0 1 0-7.442h13.023V400zM289.302 383.256h-59.535a3.72 3.72 0 0 1 0-7.442h59.535v7.442z"/>
            <path fill="#E6E7F2" d="M289.302 364.651h-31.628a3.72 3.72 0 0 1 0-7.442h31.628v7.442z"/>
            <rect width="44.651" height="7.442" x="201.86" y="357.209" fill="#2A36C7" rx="3.721" transform="rotate(180 224.186 360.93)"/>
            <path fill="#1EE87F" d="M289.302 346.977H276.28a3.72 3.72 0 0 1 0-7.442h13.023v7.442z"/>
            <path fill="#2CD5C6" d="M207.442.93h81.86v238.14h-81.86z"/>
            <path fill="#EFCC49" d="M207.442 106.047c36.99 0 66.977 29.778 66.977 66.511s-29.987 66.512-66.977 66.512V106.047z"/>
            <path stroke="#0B0F41" stroke-dasharray="3" d="M11.163 250.233H72.78v57.674h169.08"/>
            <g stroke="#FFF" stroke-width="3" transform="translate(213.023 280.93)">
                <circle cx="27.907" cy="27.907" r="10.903"/>
                <circle cx="27.907" cy="27.907" r="18.655" opacity=".4"/>
                <circle cx="27.907" cy="27.907" r="26.407" opacity=".202"/>
            </g>
            <g fill="#FFF" transform="translate(171.163 136.744)">
                <ellipse cx="4.214" cy="3.577" rx="3.613" ry="3.577"/>
                <ellipse cx="19.699" cy="3.577" rx="3.613" ry="3.577"/>
                <ellipse cx="35.184" cy="3.577" rx="3.613" ry="3.577"/>
                <ellipse cx="50.669" cy="3.577" rx="3.613" ry="3.577"/>
                <ellipse cx="66.154" cy="3.577" rx="3.613" ry="3.577"/>
                <ellipse cx="4.214" cy="19.928" rx="3.613" ry="3.577"/>
                <ellipse cx="19.699" cy="19.928" rx="3.613" ry="3.577"/>
                <ellipse cx="35.184" cy="19.928" rx="3.613" ry="3.577"/>
                <ellipse cx="50.669" cy="19.928" rx="3.613" ry="3.577"/>
                <ellipse cx="66.154" cy="19.928" rx="3.613" ry="3.577"/>
                <ellipse cx="4.214" cy="36.279" rx="3.613" ry="3.577"/>
                <ellipse cx="19.699" cy="36.279" rx="3.613" ry="3.577"/>
                <ellipse cx="35.184" cy="36.279" rx="3.613" ry="3.577"/>
                <ellipse cx="50.669" cy="36.279" rx="3.613" ry="3.577"/>
                <ellipse cx="66.154" cy="36.279" rx="3.613" ry="3.577"/>
                <ellipse cx="4.214" cy="52.63" rx="3.613" ry="3.577"/>
                <ellipse cx="19.699" cy="52.63" rx="3.613" ry="3.577"/>
                <ellipse cx="35.184" cy="52.63" rx="3.613" ry="3.577"/>
                <ellipse cx="50.669" cy="52.63" rx="3.613" ry="3.577"/>
                <ellipse cx="66.154" cy="52.63" rx="3.613" ry="3.577"/>
                <ellipse cx="4.214" cy="68.981" rx="3.613" ry="3.577"/>
                <ellipse cx="19.699" cy="68.981" rx="3.613" ry="3.577"/>
                <ellipse cx="35.184" cy="68.981" rx="3.613" ry="3.577"/>
                <ellipse cx="50.669" cy="68.981" rx="3.613" ry="3.577"/>
                <ellipse cx="66.154" cy="68.981" rx="3.613" ry="3.577"/>
            </g>
            <path fill="#2A36C7" d="M8.837 239.07l8.405 6.106-3.21 9.88H3.642l-3.21-9.88zM207.461 0h81.841v86.512c-45.21 0-81.86-37.9-81.86-84.652 0-.621.006-1.241.02-1.86z"/>
        </g>
    </g>
</svg>
