<svg xmlns="http://www.w3.org/2000/svg" width="140" height="33" viewBox="0 0 140 33">
    <g fill="#FFF" fill-rule="evenodd">
        <path fill-rule="nonzero" d="M115.646 22.56v8.567h3.468v1.587h-8.895v-1.587h3.807V24.06h-3.24v-1.587h4.86v.088zm-56 9.377C58.816 32.63 57.69 33 56.312 33 53.02 33 51 30.837 51 26.984v-2.968C51 20.246 53.06 18 56.312 18c3.233 0 4.965 1.978 4.965 5.213v.185h-1.559v-.185c0-2.308-1.174-3.73-3.387-3.73-2.386 0-3.772 1.752-3.772 4.472v3.09c0 2.782 1.347 4.45 3.753 4.45 2.386 0 3.406-1.338 3.406-3.625v-.446h-4.966v-1.597h6.525v6.885h-1.631v-.775zm3.262-4.432c0-2.988 2.168-5.234 5.156-5.234 2.904 0 4.945 1.896 4.945 4.945v.825h-8.417c.126 2.101 1.515 3.461 3.598 3.461 1.81 0 2.715-.927 3.22-2.04l1.41.7c-.694 1.299-1.873 2.741-4.609 2.741-3.156 0-5.303-2.307-5.303-5.398zm1.684-.763h6.734c-.084-1.978-1.368-3.07-3.262-3.07-1.936 0-3.24 1.195-3.472 3.07zm10.143-4.182h1.525v1.813h.284c.488-1.03 1.484-2.02 3.476-2.02 2.134 0 3.943 1.422 3.943 4.163v6.099h-1.545V26.66c0-1.978-1.097-2.885-2.845-2.885-1.931 0-3.273 1.278-3.273 3.75v5.09h-1.565V22.56zm10.93 5.027c0-3.132 2.146-5.316 5.24-5.316 3.114 0 5.26 2.184 5.26 5.316 0 3.112-2.146 5.316-5.26 5.316-3.094 0-5.24-2.204-5.24-5.316zm1.6 0c0 2.35 1.43 3.895 3.64 3.895s3.64-1.608 3.64-3.895c0-2.307-1.43-3.894-3.64-3.894s-3.64 1.648-3.64 3.894zm26.05-8.16c0-.816.615-1.427 1.457-1.427.842 0 1.48.611 1.48 1.426 0 .838-.638 1.449-1.48 1.449s-1.457-.611-1.457-1.449zm-14.029 3.778a2.53 2.53 0 0 1 4.404.6 2.53 2.53 0 0 1 4.895.896v8.013h-1.713v-7.595a1.509 1.509 0 1 0-3.018 0v7.595h-1.55v-7.595a1.509 1.509 0 1 0-3.018 0v7.595h-1.631V22.49h1.631v.714zm20.228 4.382c0-3.132 2.336-5.316 5.303-5.316 2.694 0 4.525 1.67 4.924 3.812l-1.599.371c-.21-1.607-1.43-2.761-3.304-2.761-2.104 0-3.682 1.628-3.682 3.894 0 2.267 1.557 3.895 3.703 3.895 1.978 0 3.03-1.154 3.325-2.761l1.6.35c-.442 2.184-2.21 3.832-4.946 3.832-2.988 0-5.324-2.204-5.324-5.316zm12.258-2.484c0-1.793 1.273-2.885 3.525-2.885 2.23 0 3.757.511 4.43 3.089l-1.39.329c-.367-2.1-2.156-2.1-2.998-2.1-.842 0-1.989.536-1.989 1.505 0 .968.579 1.36 1.926 1.586l1.241.206c2.126.35 3.483 1.03 3.483 2.947 0 1.895-1.483 3.07-3.777 3.07-2.378 0-4.583-.854-5.124-3.43l1.51-.382c.56 2.161 2.057 2.493 3.572 2.493 1.557 0 2.24-.66 2.24-1.669 0-.989-.662-1.4-2.093-1.628l-1.242-.206c-2.251-.37-3.314-1.174-3.314-2.925z"/>
        <path d="M2.683 28.021A2.689 2.689 0 0 1 0 25.327v-9.705C0 8.111 6.083 2 13.56 2c7.478 0 13.562 6.111 13.562 13.622a2.689 2.689 0 0 1-2.683 2.695 2.689 2.689 0 0 1-2.682-2.695c0-4.54-3.677-8.233-8.196-8.233-4.52 0-8.196 3.694-8.196 8.233v9.705a2.689 2.689 0 0 1-2.682 2.694zM24.439 29c-7.477 0-13.56-6.11-13.56-13.622a2.689 2.689 0 0 1 2.682-2.695 2.689 2.689 0 0 1 2.682 2.695c0 4.54 3.677 8.233 8.196 8.233 4.52 0 8.196-3.694 8.196-8.233V5.673a2.689 2.689 0 0 1 2.682-2.694A2.689 2.689 0 0 1 38 5.673v9.705C38 22.889 31.917 29 24.44 29z"/>
        <path fill-rule="nonzero" d="M51 0h4.873l3.332 12.1h.25V0h2.749v14.706H57.33L53.999 2.605h-.25v12.1H51V0zm12.533 9.412c0-3.151 2.145-5.42 5.186-5.42 2.998 0 5.018 2.121 5.018 5.252v.987H66.22c.104 1.429 1.083 2.5 2.582 2.5 1.458 0 2.228-.82 2.582-1.555l2.145 1.261C72.821 13.529 71.613 15 68.844 15c-3.082 0-5.31-2.353-5.31-5.588zm2.707-.946h4.832c-.146-1.365-1.02-2.205-2.374-2.205-1.479 0-2.29.882-2.458 2.205zM74.942 0h2.624v5.756h.25c.541-.882 1.458-1.764 3.29-1.764 2.582 0 4.748 2.31 4.748 5.504 0 3.193-2.166 5.504-4.748 5.504-1.832 0-2.749-.882-3.29-1.765h-.292v1.47h-2.582V0zm5.456 6.345c-1.624 0-2.832 1.176-2.832 3.15 0 1.976 1.208 3.152 2.832 3.152 1.583 0 2.832-1.134 2.832-3.151s-1.25-3.151-2.832-3.151zm16.782 8.36h-2.583v-1.68h-.291c-.417.967-1.375 1.849-3.27 1.849-2.29 0-4.019-1.66-4.019-4.37V4.286h2.624v5.966c0 1.45.833 2.311 2.332 2.311 1.687 0 2.583-1.05 2.583-2.9V4.287h2.624v10.42zM101.716 0v14.706h-2.624V0h2.624zm1.538 6.849c.812-1.198 2.312-2.857 5.06-2.857 2.75 0 4.686 1.617 4.686 4.138v6.576h-2.582v-1.47h-.292c-.333.693-1.062 1.764-3.248 1.764-2.333 0-3.874-1.26-3.874-3.256 0-1.66 1.437-2.815 3.415-3.026l3.957-.44V7.94c0-.966-.708-1.807-2.166-1.807-1.457 0-2.29.84-2.832 2.017l-2.124-1.302zm2.499 4.748c0 .714.604 1.218 1.77 1.218 1.833 0 2.853-1.092 2.853-2.52v-.253l-3.165.378c-.979.126-1.458.567-1.458 1.177z"/>
    </g>
</svg>
