<svg xmlns="http://www.w3.org/2000/svg" width="155" height="109" viewBox="0 0 155 109">
    <g fill="none" fill-rule="evenodd" transform="rotate(180 77.5 54.015)">
        <path fill="#2531CA" d="M154.9 107.71h-22.2a6.788 6.788 0 0 1 0-13.577h22.2v13.577zM154.9 78.746H50.268a6.788 6.788 0 0 1 0-13.577h104.63v13.577z"/>
        <path fill="#FFF" d="M154.9 45.256H99.184a6.788 6.788 0 0 1 0-13.577h55.714v13.577z"/>
        <rect width="78.808" height="13.577" y="31.679" fill="#2531CA" rx="6.788" transform="rotate(180 39.404 38.468)"/>
        <path fill="#1EE87F" d="M154.9 13.577h-22.2A6.788 6.788 0 0 1 132.7 0h22.2v13.577z"/>
    </g>
</svg>
